<mxfile host="app.diagrams.net" modified="2024-01-03T16:16:45.416Z" agent="Mozilla/5.0 (Windows NT 10.0; Win64; x64) AppleWebKit/537.36 (KHTML, like Gecko) Chrome/120.0.0.0 Safari/537.36" etag="UFxjzeqr42VZa9fTaB2K" version="22.1.16" type="device">
  <diagram name="Page-1" id="--YLNqB3qI4TCeaFtrOx">
    <mxGraphModel dx="875" dy="1542" grid="1" gridSize="10" guides="1" tooltips="1" connect="1" arrows="1" fold="1" page="1" pageScale="1" pageWidth="850" pageHeight="1100" math="0" shadow="0">
      <root>
        <mxCell id="0" />
        <mxCell id="1" parent="0" />
        <mxCell id="v2P0E8yoznaXXu9y6qvT-101" style="edgeStyle=orthogonalEdgeStyle;rounded=0;orthogonalLoop=1;jettySize=auto;html=1;" edge="1" parent="1" source="v2P0E8yoznaXXu9y6qvT-1">
          <mxGeometry relative="1" as="geometry">
            <mxPoint x="370" y="90" as="targetPoint" />
          </mxGeometry>
        </mxCell>
        <mxCell id="v2P0E8yoznaXXu9y6qvT-1" value="" style="strokeWidth=2;html=1;shape=mxgraph.flowchart.start_2;whiteSpace=wrap;strokeColor=#FFFFFF;fillColor=#000000;" vertex="1" parent="1">
          <mxGeometry x="320" y="-160" width="100" height="100" as="geometry" />
        </mxCell>
        <mxCell id="v2P0E8yoznaXXu9y6qvT-5" style="edgeStyle=orthogonalEdgeStyle;rounded=0;orthogonalLoop=1;jettySize=auto;html=1;exitX=0.5;exitY=1;exitDx=0;exitDy=0;entryX=0.5;entryY=0;entryDx=0;entryDy=0;" edge="1" parent="1" source="v2P0E8yoznaXXu9y6qvT-2" target="v2P0E8yoznaXXu9y6qvT-4">
          <mxGeometry relative="1" as="geometry" />
        </mxCell>
        <mxCell id="v2P0E8yoznaXXu9y6qvT-2" value="Reciving the Relavant voltages from sensor" style="rounded=1;whiteSpace=wrap;html=1;" vertex="1" parent="1">
          <mxGeometry x="360" y="170" width="120" height="60" as="geometry" />
        </mxCell>
        <mxCell id="v2P0E8yoznaXXu9y6qvT-11" style="edgeStyle=orthogonalEdgeStyle;rounded=0;orthogonalLoop=1;jettySize=auto;html=1;exitX=1;exitY=0.5;exitDx=0;exitDy=0;entryX=0;entryY=0.5;entryDx=0;entryDy=0;" edge="1" parent="1" source="v2P0E8yoznaXXu9y6qvT-4" target="v2P0E8yoznaXXu9y6qvT-10">
          <mxGeometry relative="1" as="geometry" />
        </mxCell>
        <mxCell id="v2P0E8yoznaXXu9y6qvT-4" value="Read the analog Voltages by ADC" style="rounded=1;whiteSpace=wrap;html=1;" vertex="1" parent="1">
          <mxGeometry x="360" y="290" width="120" height="60" as="geometry" />
        </mxCell>
        <mxCell id="v2P0E8yoznaXXu9y6qvT-20" value="" style="edgeStyle=orthogonalEdgeStyle;rounded=0;orthogonalLoop=1;jettySize=auto;html=1;" edge="1" parent="1" source="v2P0E8yoznaXXu9y6qvT-6" target="v2P0E8yoznaXXu9y6qvT-8">
          <mxGeometry relative="1" as="geometry" />
        </mxCell>
        <mxCell id="v2P0E8yoznaXXu9y6qvT-6" value="Get the Angle by Calculation" style="rounded=1;whiteSpace=wrap;html=1;" vertex="1" parent="1">
          <mxGeometry x="437.5" y="530" width="120" height="60" as="geometry" />
        </mxCell>
        <mxCell id="v2P0E8yoznaXXu9y6qvT-25" value="" style="edgeStyle=orthogonalEdgeStyle;rounded=0;orthogonalLoop=1;jettySize=auto;html=1;" edge="1" parent="1" source="v2P0E8yoznaXXu9y6qvT-8" target="v2P0E8yoznaXXu9y6qvT-24">
          <mxGeometry relative="1" as="geometry" />
        </mxCell>
        <mxCell id="v2P0E8yoznaXXu9y6qvT-8" value="Save the Angle in SRAM" style="rounded=1;whiteSpace=wrap;html=1;" vertex="1" parent="1">
          <mxGeometry x="670" y="530" width="120" height="60" as="geometry" />
        </mxCell>
        <mxCell id="v2P0E8yoznaXXu9y6qvT-10" value="Save the Readings in SRAM" style="rounded=1;whiteSpace=wrap;html=1;" vertex="1" parent="1">
          <mxGeometry x="610" y="290" width="120" height="60" as="geometry" />
        </mxCell>
        <mxCell id="v2P0E8yoznaXXu9y6qvT-19" value="" style="edgeStyle=orthogonalEdgeStyle;rounded=0;orthogonalLoop=1;jettySize=auto;html=1;" edge="1" parent="1" source="v2P0E8yoznaXXu9y6qvT-12" target="v2P0E8yoznaXXu9y6qvT-6">
          <mxGeometry relative="1" as="geometry" />
        </mxCell>
        <mxCell id="v2P0E8yoznaXXu9y6qvT-12" value="" style="html=1;points=[];perimeter=orthogonalPerimeter;fillColor=strokeColor;rotation=90;" vertex="1" parent="1">
          <mxGeometry x="495" y="365" width="5" height="130" as="geometry" />
        </mxCell>
        <mxCell id="v2P0E8yoznaXXu9y6qvT-14" style="edgeStyle=orthogonalEdgeStyle;rounded=0;orthogonalLoop=1;jettySize=auto;html=1;exitX=0.5;exitY=1;exitDx=0;exitDy=0;entryX=-0.14;entryY=0.853;entryDx=0;entryDy=0;entryPerimeter=0;" edge="1" parent="1" source="v2P0E8yoznaXXu9y6qvT-4" target="v2P0E8yoznaXXu9y6qvT-12">
          <mxGeometry relative="1" as="geometry" />
        </mxCell>
        <mxCell id="v2P0E8yoznaXXu9y6qvT-17" style="edgeStyle=orthogonalEdgeStyle;rounded=0;orthogonalLoop=1;jettySize=auto;html=1;exitX=0.5;exitY=1;exitDx=0;exitDy=0;entryX=-0.3;entryY=0.176;entryDx=0;entryDy=0;entryPerimeter=0;" edge="1" parent="1" source="v2P0E8yoznaXXu9y6qvT-10" target="v2P0E8yoznaXXu9y6qvT-12">
          <mxGeometry relative="1" as="geometry" />
        </mxCell>
        <mxCell id="v2P0E8yoznaXXu9y6qvT-32" value="" style="edgeStyle=orthogonalEdgeStyle;rounded=0;orthogonalLoop=1;jettySize=auto;html=1;" edge="1" parent="1" source="v2P0E8yoznaXXu9y6qvT-21" target="v2P0E8yoznaXXu9y6qvT-31">
          <mxGeometry relative="1" as="geometry" />
        </mxCell>
        <mxCell id="v2P0E8yoznaXXu9y6qvT-21" value="" style="html=1;points=[];perimeter=orthogonalPerimeter;fillColor=strokeColor;rotation=90;" vertex="1" parent="1">
          <mxGeometry x="610" y="720" width="5" height="130" as="geometry" />
        </mxCell>
        <mxCell id="v2P0E8yoznaXXu9y6qvT-22" style="edgeStyle=orthogonalEdgeStyle;rounded=0;orthogonalLoop=1;jettySize=auto;html=1;exitX=0.5;exitY=1;exitDx=0;exitDy=0;entryX=-0.5;entryY=0.788;entryDx=0;entryDy=0;entryPerimeter=0;" edge="1" parent="1" source="v2P0E8yoznaXXu9y6qvT-6" target="v2P0E8yoznaXXu9y6qvT-21">
          <mxGeometry relative="1" as="geometry" />
        </mxCell>
        <mxCell id="v2P0E8yoznaXXu9y6qvT-27" value="" style="edgeStyle=orthogonalEdgeStyle;rounded=0;orthogonalLoop=1;jettySize=auto;html=1;" edge="1" parent="1" source="v2P0E8yoznaXXu9y6qvT-24">
          <mxGeometry relative="1" as="geometry">
            <mxPoint x="640" y="780" as="targetPoint" />
            <Array as="points">
              <mxPoint x="750" y="655" />
              <mxPoint x="750" y="690" />
              <mxPoint x="640" y="690" />
            </Array>
          </mxGeometry>
        </mxCell>
        <mxCell id="v2P0E8yoznaXXu9y6qvT-30" value="" style="edgeStyle=orthogonalEdgeStyle;rounded=0;orthogonalLoop=1;jettySize=auto;html=1;" edge="1" parent="1" source="v2P0E8yoznaXXu9y6qvT-24" target="v2P0E8yoznaXXu9y6qvT-28">
          <mxGeometry relative="1" as="geometry">
            <Array as="points">
              <mxPoint x="820" y="689" />
              <mxPoint x="870" y="689" />
            </Array>
          </mxGeometry>
        </mxCell>
        <mxCell id="v2P0E8yoznaXXu9y6qvT-24" value="" style="html=1;points=[];perimeter=orthogonalPerimeter;fillColor=strokeColor;rotation=90;" vertex="1" parent="1">
          <mxGeometry x="785" y="590" width="5" height="130" as="geometry" />
        </mxCell>
        <mxCell id="v2P0E8yoznaXXu9y6qvT-97" style="edgeStyle=orthogonalEdgeStyle;rounded=0;orthogonalLoop=1;jettySize=auto;html=1;exitX=1;exitY=0.5;exitDx=0;exitDy=0;" edge="1" parent="1" source="v2P0E8yoznaXXu9y6qvT-28">
          <mxGeometry relative="1" as="geometry">
            <mxPoint x="1220" y="570" as="targetPoint" />
          </mxGeometry>
        </mxCell>
        <mxCell id="v2P0E8yoznaXXu9y6qvT-28" value="Display the Angle in LCD" style="rounded=1;whiteSpace=wrap;html=1;" vertex="1" parent="1">
          <mxGeometry x="810" y="720" width="120" height="60" as="geometry" />
        </mxCell>
        <mxCell id="v2P0E8yoznaXXu9y6qvT-34" style="edgeStyle=orthogonalEdgeStyle;rounded=0;orthogonalLoop=1;jettySize=auto;html=1;exitX=1;exitY=0.5;exitDx=0;exitDy=0;entryX=0;entryY=0.5;entryDx=0;entryDy=0;" edge="1" parent="1" source="v2P0E8yoznaXXu9y6qvT-31" target="v2P0E8yoznaXXu9y6qvT-33">
          <mxGeometry relative="1" as="geometry" />
        </mxCell>
        <mxCell id="v2P0E8yoznaXXu9y6qvT-37" value="" style="edgeStyle=orthogonalEdgeStyle;rounded=0;orthogonalLoop=1;jettySize=auto;html=1;" edge="1" parent="1" source="v2P0E8yoznaXXu9y6qvT-31" target="v2P0E8yoznaXXu9y6qvT-36">
          <mxGeometry relative="1" as="geometry" />
        </mxCell>
        <mxCell id="v2P0E8yoznaXXu9y6qvT-31" value="&lt;font style=&quot;font-size: 15px;&quot;&gt;-5&amp;lt;Angle&amp;lt;+5&lt;/font&gt;" style="rhombus;whiteSpace=wrap;html=1;" vertex="1" parent="1">
          <mxGeometry x="544" y="870" width="137" height="130" as="geometry" />
        </mxCell>
        <mxCell id="v2P0E8yoznaXXu9y6qvT-95" style="edgeStyle=orthogonalEdgeStyle;rounded=0;orthogonalLoop=1;jettySize=auto;html=1;exitX=1;exitY=0.5;exitDx=0;exitDy=0;" edge="1" parent="1" source="v2P0E8yoznaXXu9y6qvT-33">
          <mxGeometry relative="1" as="geometry">
            <mxPoint x="1330" y="770" as="targetPoint" />
          </mxGeometry>
        </mxCell>
        <mxCell id="v2P0E8yoznaXXu9y6qvT-33" value="Switch On LEDs in Pin D0 and PinB 10" style="rounded=1;whiteSpace=wrap;html=1;" vertex="1" parent="1">
          <mxGeometry x="810" y="905" width="120" height="60" as="geometry" />
        </mxCell>
        <mxCell id="v2P0E8yoznaXXu9y6qvT-35" value="&lt;font style=&quot;font-size: 14px;&quot;&gt;True&lt;/font&gt;" style="text;html=1;strokeColor=none;fillColor=none;align=center;verticalAlign=middle;whiteSpace=wrap;rounded=0;" vertex="1" parent="1">
          <mxGeometry x="681" y="905" width="60" height="30" as="geometry" />
        </mxCell>
        <mxCell id="v2P0E8yoznaXXu9y6qvT-41" style="edgeStyle=orthogonalEdgeStyle;rounded=0;orthogonalLoop=1;jettySize=auto;html=1;exitX=1;exitY=0.5;exitDx=0;exitDy=0;entryX=0;entryY=0.5;entryDx=0;entryDy=0;" edge="1" parent="1" source="v2P0E8yoznaXXu9y6qvT-36" target="v2P0E8yoznaXXu9y6qvT-40">
          <mxGeometry relative="1" as="geometry" />
        </mxCell>
        <mxCell id="v2P0E8yoznaXXu9y6qvT-52" style="edgeStyle=orthogonalEdgeStyle;rounded=0;orthogonalLoop=1;jettySize=auto;html=1;exitX=0.5;exitY=1;exitDx=0;exitDy=0;entryX=0.5;entryY=0;entryDx=0;entryDy=0;" edge="1" parent="1" source="v2P0E8yoznaXXu9y6qvT-36" target="v2P0E8yoznaXXu9y6qvT-46">
          <mxGeometry relative="1" as="geometry" />
        </mxCell>
        <mxCell id="v2P0E8yoznaXXu9y6qvT-36" value="&lt;font style=&quot;font-size: 15px;&quot;&gt;5&amp;lt;|Angle|&amp;lt;40&lt;/font&gt;" style="rhombus;whiteSpace=wrap;html=1;" vertex="1" parent="1">
          <mxGeometry x="544" y="1070" width="137" height="130" as="geometry" />
        </mxCell>
        <mxCell id="v2P0E8yoznaXXu9y6qvT-38" value="&lt;font style=&quot;font-size: 14px;&quot;&gt;False&lt;/font&gt;" style="text;html=1;strokeColor=none;fillColor=none;align=center;verticalAlign=middle;whiteSpace=wrap;rounded=0;" vertex="1" parent="1">
          <mxGeometry x="610" y="1000" width="60" height="30" as="geometry" />
        </mxCell>
        <mxCell id="v2P0E8yoznaXXu9y6qvT-82" style="edgeStyle=orthogonalEdgeStyle;rounded=0;orthogonalLoop=1;jettySize=auto;html=1;exitX=1;exitY=0.5;exitDx=0;exitDy=0;" edge="1" parent="1" source="v2P0E8yoznaXXu9y6qvT-39">
          <mxGeometry relative="1" as="geometry">
            <mxPoint x="1440" y="1080" as="targetPoint" />
          </mxGeometry>
        </mxCell>
        <mxCell id="v2P0E8yoznaXXu9y6qvT-39" value="Switch On LED in&lt;br&gt;&amp;nbsp;Pin D0&amp;nbsp;" style="rounded=1;whiteSpace=wrap;html=1;" vertex="1" parent="1">
          <mxGeometry x="1090" y="1105" width="120" height="60" as="geometry" />
        </mxCell>
        <mxCell id="v2P0E8yoznaXXu9y6qvT-42" style="edgeStyle=orthogonalEdgeStyle;rounded=0;orthogonalLoop=1;jettySize=auto;html=1;exitX=1;exitY=0.5;exitDx=0;exitDy=0;entryX=0;entryY=0.5;entryDx=0;entryDy=0;" edge="1" parent="1" source="v2P0E8yoznaXXu9y6qvT-40" target="v2P0E8yoznaXXu9y6qvT-39">
          <mxGeometry relative="1" as="geometry" />
        </mxCell>
        <mxCell id="v2P0E8yoznaXXu9y6qvT-44" style="edgeStyle=orthogonalEdgeStyle;rounded=0;orthogonalLoop=1;jettySize=auto;html=1;exitX=0.5;exitY=1;exitDx=0;exitDy=0;entryX=0.5;entryY=0;entryDx=0;entryDy=0;" edge="1" parent="1" source="v2P0E8yoznaXXu9y6qvT-40" target="v2P0E8yoznaXXu9y6qvT-43">
          <mxGeometry relative="1" as="geometry" />
        </mxCell>
        <mxCell id="v2P0E8yoznaXXu9y6qvT-40" value="&lt;font style=&quot;font-size: 15px;&quot;&gt;if Sign&lt;br&gt;&amp;nbsp;of the Angle &lt;br&gt;is &quot;+&quot;&lt;/font&gt;" style="rhombus;whiteSpace=wrap;html=1;" vertex="1" parent="1">
          <mxGeometry x="801.5" y="1070" width="137" height="130" as="geometry" />
        </mxCell>
        <mxCell id="v2P0E8yoznaXXu9y6qvT-83" style="edgeStyle=orthogonalEdgeStyle;rounded=0;orthogonalLoop=1;jettySize=auto;html=1;exitX=1;exitY=0.5;exitDx=0;exitDy=0;" edge="1" parent="1" source="v2P0E8yoznaXXu9y6qvT-43">
          <mxGeometry relative="1" as="geometry">
            <mxPoint x="1530" y="1080" as="targetPoint" />
          </mxGeometry>
        </mxCell>
        <mxCell id="v2P0E8yoznaXXu9y6qvT-43" value="Switch On LED in&lt;br&gt;&amp;nbsp;Pin B10&amp;nbsp;" style="rounded=1;whiteSpace=wrap;html=1;" vertex="1" parent="1">
          <mxGeometry x="810" y="1320" width="120" height="60" as="geometry" />
        </mxCell>
        <mxCell id="v2P0E8yoznaXXu9y6qvT-45" style="edgeStyle=orthogonalEdgeStyle;rounded=0;orthogonalLoop=1;jettySize=auto;html=1;exitX=1;exitY=0.5;exitDx=0;exitDy=0;entryX=0;entryY=0.5;entryDx=0;entryDy=0;" edge="1" parent="1" source="v2P0E8yoznaXXu9y6qvT-46" target="v2P0E8yoznaXXu9y6qvT-49">
          <mxGeometry relative="1" as="geometry" />
        </mxCell>
        <mxCell id="v2P0E8yoznaXXu9y6qvT-66" style="edgeStyle=orthogonalEdgeStyle;rounded=0;orthogonalLoop=1;jettySize=auto;html=1;exitX=0.5;exitY=1;exitDx=0;exitDy=0;entryX=0;entryY=0.5;entryDx=0;entryDy=0;" edge="1" parent="1" source="v2P0E8yoznaXXu9y6qvT-46" target="v2P0E8yoznaXXu9y6qvT-60">
          <mxGeometry relative="1" as="geometry">
            <mxPoint x="710" y="1930" as="targetPoint" />
            <Array as="points">
              <mxPoint x="613" y="1890" />
              <mxPoint x="613" y="1890" />
              <mxPoint x="613" y="1925" />
            </Array>
          </mxGeometry>
        </mxCell>
        <mxCell id="v2P0E8yoznaXXu9y6qvT-46" value="&lt;font style=&quot;font-size: 15px;&quot;&gt;40&amp;lt;|Angle|&amp;lt;70&lt;/font&gt;" style="rhombus;whiteSpace=wrap;html=1;" vertex="1" parent="1">
          <mxGeometry x="544" y="1440" width="137" height="130" as="geometry" />
        </mxCell>
        <mxCell id="v2P0E8yoznaXXu9y6qvT-47" style="edgeStyle=orthogonalEdgeStyle;rounded=0;orthogonalLoop=1;jettySize=auto;html=1;exitX=1;exitY=0.5;exitDx=0;exitDy=0;entryX=0;entryY=0.5;entryDx=0;entryDy=0;" edge="1" parent="1" source="v2P0E8yoznaXXu9y6qvT-49">
          <mxGeometry relative="1" as="geometry">
            <mxPoint x="1090" y="1505" as="targetPoint" />
          </mxGeometry>
        </mxCell>
        <mxCell id="v2P0E8yoznaXXu9y6qvT-48" style="edgeStyle=orthogonalEdgeStyle;rounded=0;orthogonalLoop=1;jettySize=auto;html=1;exitX=0.5;exitY=1;exitDx=0;exitDy=0;entryX=0.5;entryY=0;entryDx=0;entryDy=0;" edge="1" parent="1" source="v2P0E8yoznaXXu9y6qvT-49" target="v2P0E8yoznaXXu9y6qvT-50">
          <mxGeometry relative="1" as="geometry" />
        </mxCell>
        <mxCell id="v2P0E8yoznaXXu9y6qvT-49" value="&lt;font style=&quot;font-size: 15px;&quot;&gt;if Sign&lt;br&gt;&amp;nbsp;of the Angle &lt;br&gt;is &quot;+&quot;&lt;/font&gt;" style="rhombus;whiteSpace=wrap;html=1;" vertex="1" parent="1">
          <mxGeometry x="801.5" y="1440" width="137" height="130" as="geometry" />
        </mxCell>
        <mxCell id="v2P0E8yoznaXXu9y6qvT-79" style="edgeStyle=orthogonalEdgeStyle;rounded=0;orthogonalLoop=1;jettySize=auto;html=1;exitX=1;exitY=0.5;exitDx=0;exitDy=0;" edge="1" parent="1" source="v2P0E8yoznaXXu9y6qvT-50">
          <mxGeometry relative="1" as="geometry">
            <mxPoint x="1530" y="1460" as="targetPoint" />
          </mxGeometry>
        </mxCell>
        <mxCell id="v2P0E8yoznaXXu9y6qvT-50" value="Switch On LEDs in&lt;br&gt;&amp;nbsp;Pin B10 &amp;amp; Pin B11&amp;nbsp;" style="rounded=1;whiteSpace=wrap;html=1;" vertex="1" parent="1">
          <mxGeometry x="810" y="1690" width="120" height="60" as="geometry" />
        </mxCell>
        <mxCell id="v2P0E8yoznaXXu9y6qvT-78" style="edgeStyle=orthogonalEdgeStyle;rounded=0;orthogonalLoop=1;jettySize=auto;html=1;exitX=1;exitY=0.5;exitDx=0;exitDy=0;" edge="1" parent="1" source="v2P0E8yoznaXXu9y6qvT-51">
          <mxGeometry relative="1" as="geometry">
            <mxPoint x="1450" y="1460" as="targetPoint" />
          </mxGeometry>
        </mxCell>
        <mxCell id="v2P0E8yoznaXXu9y6qvT-51" value="Switch On LEDs in&lt;br&gt;&amp;nbsp;Pin D0 &amp;amp; Pin D1" style="rounded=1;whiteSpace=wrap;html=1;" vertex="1" parent="1">
          <mxGeometry x="1090" y="1475" width="120" height="60" as="geometry" />
        </mxCell>
        <mxCell id="v2P0E8yoznaXXu9y6qvT-53" value="&lt;font style=&quot;font-size: 14px;&quot;&gt;True&lt;/font&gt;" style="text;html=1;strokeColor=none;fillColor=none;align=center;verticalAlign=middle;whiteSpace=wrap;rounded=0;" vertex="1" parent="1">
          <mxGeometry x="681" y="1100" width="60" height="30" as="geometry" />
        </mxCell>
        <mxCell id="v2P0E8yoznaXXu9y6qvT-54" value="&lt;font style=&quot;font-size: 14px;&quot;&gt;False&lt;/font&gt;" style="text;html=1;strokeColor=none;fillColor=none;align=center;verticalAlign=middle;whiteSpace=wrap;rounded=0;" vertex="1" parent="1">
          <mxGeometry x="621" y="1210" width="60" height="30" as="geometry" />
        </mxCell>
        <mxCell id="v2P0E8yoznaXXu9y6qvT-55" value="&lt;font style=&quot;font-size: 14px;&quot;&gt;True&lt;/font&gt;" style="text;html=1;strokeColor=none;fillColor=none;align=center;verticalAlign=middle;whiteSpace=wrap;rounded=0;" vertex="1" parent="1">
          <mxGeometry x="681" y="1475" width="60" height="30" as="geometry" />
        </mxCell>
        <mxCell id="v2P0E8yoznaXXu9y6qvT-58" style="edgeStyle=orthogonalEdgeStyle;rounded=0;orthogonalLoop=1;jettySize=auto;html=1;exitX=1;exitY=0.5;exitDx=0;exitDy=0;entryX=0;entryY=0.5;entryDx=0;entryDy=0;" edge="1" parent="1" source="v2P0E8yoznaXXu9y6qvT-60">
          <mxGeometry relative="1" as="geometry">
            <mxPoint x="1090" y="1925" as="targetPoint" />
          </mxGeometry>
        </mxCell>
        <mxCell id="v2P0E8yoznaXXu9y6qvT-59" style="edgeStyle=orthogonalEdgeStyle;rounded=0;orthogonalLoop=1;jettySize=auto;html=1;exitX=0.5;exitY=1;exitDx=0;exitDy=0;entryX=0.5;entryY=0;entryDx=0;entryDy=0;" edge="1" parent="1" source="v2P0E8yoznaXXu9y6qvT-60" target="v2P0E8yoznaXXu9y6qvT-61">
          <mxGeometry relative="1" as="geometry" />
        </mxCell>
        <mxCell id="v2P0E8yoznaXXu9y6qvT-60" value="&lt;font style=&quot;font-size: 15px;&quot;&gt;if Sign&lt;br&gt;&amp;nbsp;of the Angle &lt;br&gt;is &quot;+&quot;&lt;/font&gt;" style="rhombus;whiteSpace=wrap;html=1;" vertex="1" parent="1">
          <mxGeometry x="801.5" y="1860" width="137" height="130" as="geometry" />
        </mxCell>
        <mxCell id="v2P0E8yoznaXXu9y6qvT-75" style="edgeStyle=orthogonalEdgeStyle;rounded=0;orthogonalLoop=1;jettySize=auto;html=1;exitX=1;exitY=0.5;exitDx=0;exitDy=0;entryX=-0.076;entryY=0.786;entryDx=0;entryDy=0;entryPerimeter=0;" edge="1" parent="1" source="v2P0E8yoznaXXu9y6qvT-61" target="v2P0E8yoznaXXu9y6qvT-73">
          <mxGeometry relative="1" as="geometry">
            <mxPoint x="1550" y="1890" as="targetPoint" />
          </mxGeometry>
        </mxCell>
        <mxCell id="v2P0E8yoznaXXu9y6qvT-61" value="Switch On LEDs in&lt;br&gt;&amp;nbsp;Pin B10 ,Pin B11 &amp;amp; Pin B12" style="rounded=1;whiteSpace=wrap;html=1;" vertex="1" parent="1">
          <mxGeometry x="810" y="2110" width="120" height="60" as="geometry" />
        </mxCell>
        <mxCell id="v2P0E8yoznaXXu9y6qvT-74" style="edgeStyle=orthogonalEdgeStyle;rounded=0;orthogonalLoop=1;jettySize=auto;html=1;exitX=1;exitY=0.5;exitDx=0;exitDy=0;entryX=-0.14;entryY=0.301;entryDx=0;entryDy=0;entryPerimeter=0;" edge="1" parent="1" source="v2P0E8yoznaXXu9y6qvT-62" target="v2P0E8yoznaXXu9y6qvT-73">
          <mxGeometry relative="1" as="geometry">
            <mxPoint x="1460" y="1890" as="targetPoint" />
          </mxGeometry>
        </mxCell>
        <mxCell id="v2P0E8yoznaXXu9y6qvT-62" value="Switch On LEDs in&lt;br&gt;&amp;nbsp;Pin D0 , Pin D1 &amp;amp;&lt;br&gt;&amp;nbsp;Pin D2&amp;nbsp;" style="rounded=1;whiteSpace=wrap;html=1;" vertex="1" parent="1">
          <mxGeometry x="1090" y="1895" width="120" height="60" as="geometry" />
        </mxCell>
        <mxCell id="v2P0E8yoznaXXu9y6qvT-65" value="&lt;font style=&quot;font-size: 14px;&quot;&gt;False&lt;/font&gt;" style="text;html=1;strokeColor=none;fillColor=none;align=center;verticalAlign=middle;whiteSpace=wrap;rounded=0;" vertex="1" parent="1">
          <mxGeometry x="621" y="1580" width="60" height="30" as="geometry" />
        </mxCell>
        <mxCell id="v2P0E8yoznaXXu9y6qvT-67" value="&lt;font style=&quot;font-size: 14px;&quot;&gt;True&lt;/font&gt;" style="text;html=1;strokeColor=none;fillColor=none;align=center;verticalAlign=middle;whiteSpace=wrap;rounded=0;" vertex="1" parent="1">
          <mxGeometry x="930" y="1100" width="60" height="30" as="geometry" />
        </mxCell>
        <mxCell id="v2P0E8yoznaXXu9y6qvT-68" value="&lt;font style=&quot;font-size: 14px;&quot;&gt;False&lt;/font&gt;" style="text;html=1;strokeColor=none;fillColor=none;align=center;verticalAlign=middle;whiteSpace=wrap;rounded=0;" vertex="1" parent="1">
          <mxGeometry x="890" y="1200" width="60" height="30" as="geometry" />
        </mxCell>
        <mxCell id="v2P0E8yoznaXXu9y6qvT-69" value="&lt;font style=&quot;font-size: 14px;&quot;&gt;True&lt;/font&gt;" style="text;html=1;strokeColor=none;fillColor=none;align=center;verticalAlign=middle;whiteSpace=wrap;rounded=0;" vertex="1" parent="1">
          <mxGeometry x="938.5" y="1475" width="60" height="30" as="geometry" />
        </mxCell>
        <mxCell id="v2P0E8yoznaXXu9y6qvT-70" value="&lt;font style=&quot;font-size: 14px;&quot;&gt;False&lt;/font&gt;" style="text;html=1;strokeColor=none;fillColor=none;align=center;verticalAlign=middle;whiteSpace=wrap;rounded=0;" vertex="1" parent="1">
          <mxGeometry x="870" y="1570" width="60" height="30" as="geometry" />
        </mxCell>
        <mxCell id="v2P0E8yoznaXXu9y6qvT-71" value="&lt;font style=&quot;font-size: 14px;&quot;&gt;True&lt;/font&gt;" style="text;html=1;strokeColor=none;fillColor=none;align=center;verticalAlign=middle;whiteSpace=wrap;rounded=0;" vertex="1" parent="1">
          <mxGeometry x="938.5" y="1890" width="60" height="30" as="geometry" />
        </mxCell>
        <mxCell id="v2P0E8yoznaXXu9y6qvT-72" value="&lt;font style=&quot;font-size: 14px;&quot;&gt;False&lt;/font&gt;" style="text;html=1;strokeColor=none;fillColor=none;align=center;verticalAlign=middle;whiteSpace=wrap;rounded=0;" vertex="1" parent="1">
          <mxGeometry x="890" y="1990" width="60" height="30" as="geometry" />
        </mxCell>
        <mxCell id="v2P0E8yoznaXXu9y6qvT-87" style="edgeStyle=orthogonalEdgeStyle;rounded=0;orthogonalLoop=1;jettySize=auto;html=1;" edge="1" parent="1" source="v2P0E8yoznaXXu9y6qvT-73">
          <mxGeometry relative="1" as="geometry">
            <mxPoint x="1780" y="1240" as="targetPoint" />
            <Array as="points">
              <mxPoint x="1498" y="1770" />
              <mxPoint x="1781" y="1770" />
            </Array>
          </mxGeometry>
        </mxCell>
        <mxCell id="v2P0E8yoznaXXu9y6qvT-73" value="" style="html=1;points=[];perimeter=orthogonalPerimeter;fillColor=strokeColor;rotation=-90;" vertex="1" parent="1">
          <mxGeometry x="1495" y="1785" width="5" height="190" as="geometry" />
        </mxCell>
        <mxCell id="v2P0E8yoznaXXu9y6qvT-86" style="edgeStyle=orthogonalEdgeStyle;rounded=0;orthogonalLoop=1;jettySize=auto;html=1;" edge="1" parent="1" source="v2P0E8yoznaXXu9y6qvT-77">
          <mxGeometry relative="1" as="geometry">
            <mxPoint x="1660" y="1240" as="targetPoint" />
            <Array as="points">
              <mxPoint x="1470" y="1387" />
              <mxPoint x="1660" y="1387" />
              <mxPoint x="1660" y="1270" />
            </Array>
          </mxGeometry>
        </mxCell>
        <mxCell id="v2P0E8yoznaXXu9y6qvT-77" value="" style="html=1;points=[];perimeter=orthogonalPerimeter;fillColor=strokeColor;rotation=-90;" vertex="1" parent="1">
          <mxGeometry x="1490" y="1360" width="5" height="190" as="geometry" />
        </mxCell>
        <mxCell id="v2P0E8yoznaXXu9y6qvT-89" style="edgeStyle=orthogonalEdgeStyle;rounded=0;orthogonalLoop=1;jettySize=auto;html=1;" edge="1" parent="1">
          <mxGeometry relative="1" as="geometry">
            <mxPoint x="1630" y="860" as="targetPoint" />
            <mxPoint x="1485" y="1070" as="sourcePoint" />
            <Array as="points">
              <mxPoint x="1485" y="1008" />
              <mxPoint x="1630" y="1008" />
            </Array>
          </mxGeometry>
        </mxCell>
        <mxCell id="v2P0E8yoznaXXu9y6qvT-81" value="" style="html=1;points=[];perimeter=orthogonalPerimeter;fillColor=strokeColor;rotation=-90;" vertex="1" parent="1">
          <mxGeometry x="1485" y="980" width="5" height="190" as="geometry" />
        </mxCell>
        <mxCell id="v2P0E8yoznaXXu9y6qvT-90" style="edgeStyle=orthogonalEdgeStyle;rounded=0;orthogonalLoop=1;jettySize=auto;html=1;" edge="1" parent="1" source="v2P0E8yoznaXXu9y6qvT-84">
          <mxGeometry relative="1" as="geometry">
            <mxPoint x="1732.5" y="860" as="targetPoint" />
          </mxGeometry>
        </mxCell>
        <mxCell id="v2P0E8yoznaXXu9y6qvT-84" value="" style="html=1;points=[];perimeter=orthogonalPerimeter;fillColor=strokeColor;rotation=-90;" vertex="1" parent="1">
          <mxGeometry x="1730" y="1140" width="5" height="190" as="geometry" />
        </mxCell>
        <mxCell id="v2P0E8yoznaXXu9y6qvT-104" style="edgeStyle=orthogonalEdgeStyle;rounded=0;orthogonalLoop=1;jettySize=auto;html=1;" edge="1" parent="1">
          <mxGeometry relative="1" as="geometry">
            <mxPoint x="1410.0000000000002" y="770" as="targetPoint" />
            <mxPoint x="1690" y="830" as="sourcePoint" />
          </mxGeometry>
        </mxCell>
        <mxCell id="v2P0E8yoznaXXu9y6qvT-88" value="" style="html=1;points=[];perimeter=orthogonalPerimeter;fillColor=strokeColor;rotation=-90;" vertex="1" parent="1">
          <mxGeometry x="1695" y="760" width="5" height="190" as="geometry" />
        </mxCell>
        <mxCell id="v2P0E8yoznaXXu9y6qvT-98" style="edgeStyle=orthogonalEdgeStyle;rounded=0;orthogonalLoop=1;jettySize=auto;html=1;" edge="1" parent="1" source="v2P0E8yoznaXXu9y6qvT-91">
          <mxGeometry relative="1" as="geometry">
            <mxPoint x="1300" y="570" as="targetPoint" />
          </mxGeometry>
        </mxCell>
        <mxCell id="v2P0E8yoznaXXu9y6qvT-91" value="" style="html=1;points=[];perimeter=orthogonalPerimeter;fillColor=strokeColor;rotation=-90;" vertex="1" parent="1">
          <mxGeometry x="1380" y="670" width="5" height="190" as="geometry" />
        </mxCell>
        <mxCell id="v2P0E8yoznaXXu9y6qvT-100" style="edgeStyle=orthogonalEdgeStyle;rounded=0;orthogonalLoop=1;jettySize=auto;html=1;exitX=0.881;exitY=0.512;exitDx=0;exitDy=0;exitPerimeter=0;" edge="1" parent="1" source="v2P0E8yoznaXXu9y6qvT-96">
          <mxGeometry relative="1" as="geometry">
            <mxPoint x="500" y="90" as="targetPoint" />
            <mxPoint x="1275.1599999999999" y="550" as="sourcePoint" />
            <Array as="points">
              <mxPoint x="1275" y="13" />
              <mxPoint x="500" y="13" />
            </Array>
          </mxGeometry>
        </mxCell>
        <mxCell id="v2P0E8yoznaXXu9y6qvT-96" value="" style="html=1;points=[];perimeter=orthogonalPerimeter;fillColor=strokeColor;rotation=-90;" vertex="1" parent="1">
          <mxGeometry x="1270" y="465" width="5" height="190" as="geometry" />
        </mxCell>
        <mxCell id="v2P0E8yoznaXXu9y6qvT-99" value="" style="html=1;points=[];perimeter=orthogonalPerimeter;fillColor=strokeColor;rotation=-90;" vertex="1" parent="1">
          <mxGeometry x="425" width="5" height="190" as="geometry" />
        </mxCell>
        <mxCell id="v2P0E8yoznaXXu9y6qvT-103" style="edgeStyle=orthogonalEdgeStyle;rounded=0;orthogonalLoop=1;jettySize=auto;html=1;entryX=0.563;entryY=0.027;entryDx=0;entryDy=0;entryPerimeter=0;" edge="1" parent="1" source="v2P0E8yoznaXXu9y6qvT-99" target="v2P0E8yoznaXXu9y6qvT-2">
          <mxGeometry relative="1" as="geometry" />
        </mxCell>
        <mxCell id="v2P0E8yoznaXXu9y6qvT-105" value="" style="endArrow=none;html=1;rounded=0;exitX=0.792;exitY=0.458;exitDx=0;exitDy=0;exitPerimeter=0;" edge="1" parent="1" source="v2P0E8yoznaXXu9y6qvT-88">
          <mxGeometry width="50" height="50" relative="1" as="geometry">
            <mxPoint x="1650" y="940" as="sourcePoint" />
            <mxPoint x="1690" y="830" as="targetPoint" />
          </mxGeometry>
        </mxCell>
      </root>
    </mxGraphModel>
  </diagram>
</mxfile>
